<svg xmlns="http://www.w3.org/2000/svg" viewBox="0 0 484.25 177.13"><defs><style>.cls-1{fill:#e8e8e8;}.cls-2,.cls-4{fill:#161616;}.cls-3{font-size:113.19px;fill:#ff3131;font-family:Heavitas;}.cls-4{font-size:86.02px;font-family:Basenglah-Rounded, Basenglah;}</style></defs><g id="Layer_2" data-name="Layer 2"><g id="Layer_1-2" data-name="Layer 1"><path class="cls-1" d="M33.27,0h451a0,0,0,0,1,0,0V100.61a36.9,36.9,0,0,1-36.9,36.9H0a0,0,0,0,1,0,0V33.27A33.27,33.27,0,0,1,33.27,0Z"/><path class="cls-2" d="M421.47,92.78a4.25,4.25,0,0,0-7.54-3.92l-16.46,31.67H382.33a5.66,5.66,0,1,0,0,11.32l9.18,36.7a11.31,11.31,0,0,0,11,8.58h50.23a11.32,11.32,0,0,0,11-8.58l9.18-36.7a5.66,5.66,0,1,0,0-11.32H457.74L441.28,88.86a4.25,4.25,0,1,0-7.54,3.92l14.43,27.75H407Zm-10.84,47.56v17a2.83,2.83,0,1,1-5.66,0v-17a2.83,2.83,0,0,1,5.66,0Zm17-2.83a2.83,2.83,0,0,1,2.83,2.83v17a2.83,2.83,0,1,1-5.66,0v-17A2.84,2.84,0,0,1,427.6,137.51Zm22.64,2.83v17a2.83,2.83,0,1,1-5.66,0v-17a2.83,2.83,0,1,1,5.66,0Z"/><text class="cls-3" transform="translate(19.51 107.24)">Bas<tspan class="cls-4" x="238.94" y="0">ket</tspan></text></g></g></svg>